<?xml version="1.0" encoding="UTF-8"?>
<!DOCTYPE svg PUBLIC "-//W3C//DTD SVG 1.1//EN" "http://www.w3.org/Graphics/SVG/1.1/DTD/svg11.dtd">
<!-- Creator: CorelDRAW -->
<svg xmlns="http://www.w3.org/2000/svg" xml:space="preserve" width="100px" height="33px" style="shape-rendering:geometricPrecision; text-rendering:geometricPrecision; image-rendering:optimizeQuality; fill-rule:evenodd; clip-rule:evenodd"
viewBox="0 0 1.40202 0.46241"
 xmlns:xlink="http://www.w3.org/1999/xlink">
 <defs>
  <style type="text/css">
   <![CDATA[
    .fil0 {fill:white}
    .fil1 {fill:#00923F;fill-rule:nonzero}
   ]]>
  </style>
 </defs>
 <g id="Layer_x0020_1">
  <metadata id="CorelCorpID_0Corel-Layer"/>
  <g id="_119561664">
   <g>
    <path id="_119562336" class="fil0" d="M0.0294253 0.45991l0 -0.187315 -0.0294253 -0.0588838 0.0294253 0 0 -0.20606 0.147094 0c0.158155,0.0282331 0.148849,0.253916 -0.0133631,0.270292l-0.0628579 0 0 0.180626 -0.0708725 0.00134128zm0.0695312 -0.248865l0 -0.140503 0.0561681 0c0.0881932,0.0101838 0.0886237,0.125004 0.00134128,0.139162l-0.0575094 0.00134128z"/>
    <path id="_119562624" class="fil0" d="M0.748582 0l0 0.192863 -0.0296572 0.0593474 0.0296572 0 0 0.207699 0.148269 0c0.159413,-0.0284484 0.150024,-0.255919 -0.013479,-0.272429l-0.0633547 0 0 -0.187481 -0.0714355 0zm0.0700942 0.254909l0 0.141613 0.0566152 0c0.0888887,-0.0102666 0.0893192,-0.125997 0.00134128,-0.140255l-0.0579565 -0.00135784z"/>
    <path id="_119562312" class="fil0" d="M0.576965 0.186355c0.0711871,0 0.128895,0.0612517 0.128895,0.136777 0,0.0755256 -0.0577081,0.136777 -0.128895,0.136777 -0.0711706,0 -0.128895,-0.0612517 -0.128895,-0.136777 0,-0.0755256 0.0577247,-0.136777 0.128895,-0.136777zm0 0.0624605c0.0386818,0 0.0700445,0.033267 0.0700445,0.0743168 0,0.0410497 -0.0313627,0.0743168 -0.0700445,0.0743168 -0.0386653,0 -0.070028,-0.033267 -0.070028,-0.0743168 0,-0.0410497 0.0313627,-0.0743168 0.070028,-0.0743168z"/>
    <polygon id="_119562480" class="fil0" points="1.05509,0.186123 1.11467,0.186123 1.11467,0.45991 1.05509,0.45991 "/>
    <path id="_119095480" class="fil0" d="M0.319721 0.193442l0.0600926 0 0 0.0165093c0.00549759,-0.0184798 0.0282828,-0.0239774 0.0589169,-0.02358l-0.000264944 0.0537339c-0.0318595,0.00743499 -0.0507202,0.00932271 -0.058652,0.0464811l0 0.173323 -0.0600926 0 0 -0.266467z"/>
    <path id="_119094520" class="fil0" d="M1.07927 0l0.105597 0c0.11944,0 0.217155,0.00683886 0.217155,0.0151846l0 0.136794c0,0.00834573 -0.0977146,0.015168 -0.217155,0.015168l-0.105597 0c-0.11944,0 -0.217155,-0.00682231 -0.217155,-0.015168l0 -0.136794c0,-0.00834573 0.0977146,-0.0151846 0.217155,-0.0151846z"/>
    <polygon id="_119094688" class="fil0" points="1.15375,0.237125 1.15375,0.186123 1.40082,0.186123 1.40082,0.238367 1.24375,0.407865 1.40114,0.407831 1.40202,0.46241 1.15135,0.462261 1.1504,0.415333 1.31896,0.238267 "/>
   </g>
   <path id="_119094664" class="fil1" d="M0.893739 0.0432355l0.0249544 0 0 0.0608543 0.0389136 0 0 0.0198874 -0.063868 0 0 -0.0807417zm0.0762045 0l0.0249875 0 0 0.0807417 -0.0249875 0 0 -0.0807417zm0.0385328 0.054032l0.023729 -0.00149031c0.000513329,0.00385825 0.00155655,0.00678919 0.00314621,0.00880939 0.00255009,0.00327868 0.00624274,0.00490146 0.0109952,0.00490146 0.00356018,0 0.00629242,-0.00082795 0.00822982,-0.00250041 0.00192084,-0.00167246 0.00288127,-0.00360986 0.00288127,-0.00581221 0,-0.00208643 -0.000910745,-0.00397416 -0.00274879,-0.00563006 -0.00183805,-0.0016559 -0.00609371,-0.00321244 -0.012767,-0.00466964 -0.0109455,-0.00246729 -0.0187448,-0.00571285 -0.0233979,-0.00980292 -0.0046862,-0.00407351 -0.00703757,-0.00927304 -0.00703757,-0.015582 0,-0.00415631 0.00120881,-0.00808079 0.00360986,-0.0117734 0.0023845,-0.0036761 0.00599436,-0.00657392 0.0108296,-0.00869347 0.00483523,-0.00211955 0.0114423,-0.00316277 0.0198542,-0.00316277 0.0102997,0 0.0181818,0.00192084 0.0235966,0.00574597 0.00541479,0.00384169 0.00861068,0.00995196 0.00963733,0.0183142l-0.0234972 0.0013744c-0.000612683,-0.00362642 -0.0019374,-0.00627586 -0.00394104,-0.00793176 -0.00200364,-0.00163934 -0.00475243,-0.00246729 -0.00826294,-0.00246729 -0.00291438,0 -0.00508361,0.000596124 -0.00655736,0.00183805 -0.00147375,0.00122537 -0.00220235,0.00273223 -0.00220235,0.00450405 0,0.00127504 0.000596124,0.00241761 0.00180493,0.00346083 0.00119225,0.00105978 0.00397416,0.00203676 0.00837885,0.00296406 0.0108958,0.00235138 0.0186951,0.00473587 0.0234144,0.00713693 0.00471931,0.00241761 0.00814703,0.00538167 0.0102831,0.00895842 0.00215267,0.00354362 0.00324556,0.00753434 0.00324556,0.0119556 0,0.00516641 -0.00145719,0.00995196 -0.00430534,0.014307 -0.00284815,0.00437157 -0.00685542,0.00768337 -0.0120053,0.00995196 -0.00513329,0.00225202 -0.0116244,0.00337803 -0.0194237,0.00337803 -0.0137274,0 -0.0232323,-0.00263288 -0.0285146,-0.00793176 -0.00528232,-0.00528232 -0.0082795,-0.0120053 -0.00897498,-0.0201523zm0.0800959 -0.054032l0.0757905 0 0 0.019937 -0.0254512 0 0 0.0608046 -0.0249213 0 0 -0.0608046 -0.0254181 0 0 -0.019937zm0.0736544 0.0426394l0.0325715 0 0 0.0173207 -0.0325715 0 0 -0.0173207zm0.0434674 -0.0426394l0.0232819 0 0.0303858 0.0446596 0 -0.0446596 0.0235138 0 0 0.0807417 -0.0235138 0 -0.0302202 -0.0443284 0 0.0443284 -0.0234475 0 0 -0.0807417zm0.13431 0.0514819l0 -0.0167743 0.0385162 0 0 0.0344096c-0.00736875,0.00501738 -0.0138764,0.00846165 -0.0195562,0.0102666 -0.00567974,0.00182149 -0.0124027,0.00273223 -0.0201854,0.00273223 -0.0095711,0 -0.0173704,-0.00163934 -0.0234144,-0.00490146 -0.00604403,-0.00326212 -0.0107137,-0.00813047 -0.0140255,-0.0145885 -0.00332836,-0.00647457 -0.00500082,-0.0138764 -0.00500082,-0.0222553 0,-0.00880939 0.00182149,-0.0164762 0.00544791,-0.0230004 0.00365954,-0.00650768 0.00895842,-0.0114588 0.0159629,-0.0148369 0.00548103,-0.00261632 0.0128498,-0.00390792 0.0220897,-0.00390792 0.00890874,0 0.015582,0.000811391 0.0200198,0.00241761 0.00440469,0.00162278 0.00806423,0.00412319 0.0109952,0.00751778 0.00291438,0.00339459 0.00511673,0.00769993 0.00657392,0.012916l-0.0240437 0.00428878c-0.00099354,-0.00304685 -0.00268256,-0.00536511 -0.00505049,-0.0069879 -0.00235138,-0.00162278 -0.00538167,-0.00243417 -0.00904121,-0.00243417 -0.00546447,0 -0.00981948,0.00190428 -0.0130816,0.00569629 -0.00324556,0.00382513 -0.0048849,0.00981948 -0.0048849,0.0180493 0,0.00874315 0.0016559,0.0149859 0.00495114,0.0187282 0.00326212,0.00374233 0.00784896,0.00563006 0.0137274,0.00563006 0.00278191,0 0.00544791,-0.000413975 0.00796488,-0.00122537 0.00253353,-0.000811391 0.00544791,-0.00218579 0.00871003,-0.00412319l0 -0.00761714 -0.0166749 0z"/>
  </g>
 </g>
</svg>
