<?xml version="1.0" encoding="UTF-8"?>
<!DOCTYPE svg PUBLIC "-//W3C//DTD SVG 1.1//EN" "http://www.w3.org/Graphics/SVG/1.1/DTD/svg11.dtd">
<!-- Creator: CorelDRAW -->
<svg xmlns="http://www.w3.org/2000/svg" xml:space="preserve" width="97px" height="33px" style="shape-rendering:geometricPrecision; text-rendering:geometricPrecision; image-rendering:optimizeQuality; fill-rule:evenodd; clip-rule:evenodd"
viewBox="0 0 1.3965 0.476599"
 xmlns:xlink="http://www.w3.org/1999/xlink">
 <defs>
  <style type="text/css">
   <![CDATA[
    .str1 {stroke:#DEDEDD;stroke-width:0.0283204;stroke-opacity:0.200000}
    .str0 {stroke:white;stroke-width:0.0283204}
    .fil0 {fill:#00923F}
    .fil2 {fill:white;fill-rule:nonzero}
    .fil1 {fill:#DEDEDD;fill-opacity:0.200000}
   ]]>
  </style>
 </defs>
 <g id="Layer_x0020_1">
  <metadata id="CorelCorpID_0Corel-Layer"/>
  <g id="_119737792">
   <path id="_119095000" class="fil0 str0" d="M0.0513749 0.460062l0 -0.18161 -0.0285291 -0.0570904 0.0285291 0 0 -0.199784 0.142614 0c0.153338,0.0273732 0.144315,0.246182 -0.0129561,0.26206l-0.0609435 0 0 0.175124 -0.0687139 0.00130043zm0.0674135 -0.241285l0 -0.136224 0.0544574 0c0.0855071,0.00987362 0.0859245,0.121197 0.00130043,0.134923l-0.0557578 0.00130043z"/>
   <path id="_119094424" class="fil0 str0" d="M0.748629 0.0141602l0 0.186989 -0.0287539 0.0575399 0.0287539 0 0 0.201374 0.143753 0c0.154558,-0.0275819 0.145455,-0.248125 -0.0130685,-0.264131l-0.0614251 0 0 -0.181771 -0.0692598 0zm0.0679594 0.247145l0 0.137299 0.0548909 0c0.0861814,-0.00995389 0.0865988,-0.12216 0.00130043,-0.135983l-0.0561913 -0.00131648z"/>
   <path id="_119094856" class="fil0 str0" d="M0.582238 0.194839c0.069019,0 0.124969,0.0593862 0.124969,0.132611 0,0.0732253 -0.0559505,0.132611 -0.124969,0.132611 -0.0690029,0 -0.124969,-0.0593862 -0.124969,-0.132611 0,-0.0732253 0.0559665,-0.132611 0.124969,-0.132611zm0 0.0605582c0.0375037,0 0.0679112,0.0322538 0.0679112,0.0720533 0,0.0397995 -0.0304075,0.0720533 -0.0679112,0.0720533 -0.0374876,0 -0.0678952,-0.0322538 -0.0678952,-0.0720533 0,-0.0397995 0.0304075,-0.0720533 0.0678952,-0.0720533z"/>
   <polygon id="_119094736" class="fil0 str0" points="1.0458,0.194615 1.10357,0.194615 1.10357,0.460062 1.0458,0.460062 "/>
   <path id="_119094832" class="fil0 str0" d="M0.332829 0.201711l0.0582624 0 0 0.0160065c0.00533015,-0.017917 0.0274214,-0.0232471 0.0571225,-0.0228618l-0.000256875 0.0520974c-0.0308892,0.00720854 -0.0491754,0.00903877 -0.0568656,0.0450654l0 0.168044 -0.0582624 0 0 -0.258352z"/>
   <path id="_119093728" class="fil0 str0" d="M1.06924 0.0141602l0.102381 0c0.115802,0 0.210541,0.00663057 0.210541,0.0147221l0 0.132628c0,0.00809155 -0.0947385,0.0147061 -0.210541,0.0147061l-0.102381 0c-0.115802,0 -0.210541,-0.00661452 -0.210541,-0.0147061l0 -0.132628c0,-0.00809155 0.0947385,-0.0147221 0.210541,-0.0147221z"/>
   <polygon id="_119093632" class="fil0 str0" points="1.14145,0.244063 1.14145,0.194615 1.38101,0.194615 1.38101,0.245267 1.22871,0.409603 1.38131,0.40957 1.38216,0.462487 1.13913,0.462342 1.13821,0.416843 1.30163,0.245171 "/>
  </g>
  <g id="_119561496">
   <path id="_119793288" class="fil1 str1" d="M0.0513749 0.460062l0 -0.18161 -0.0285291 -0.0570904 0.0285291 0 0 -0.199784 0.142614 0c0.153338,0.0273732 0.144315,0.246182 -0.0129561,0.26206l-0.0609435 0 0 0.175124 -0.0687139 0.00130043zm0.0674135 -0.241285l0 -0.136224 0.0544574 0c0.0855071,0.00987362 0.0859245,0.121197 0.00130043,0.134923l-0.0557578 0.00130043z"/>
   <path id="_119793000" class="fil1 str1" d="M0.748629 0.0141602l0 0.186989 -0.0287539 0.0575399 0.0287539 0 0 0.201374 0.143753 0c0.154558,-0.0275819 0.145455,-0.248125 -0.0130685,-0.264131l-0.0614251 0 0 -0.181771 -0.0692598 0zm0.0679594 0.247145l0 0.137299 0.0548909 0c0.0861814,-0.00995389 0.0865988,-0.12216 0.00130043,-0.135983l-0.0561913 -0.00131648z"/>
   <path id="_119738104" class="fil1 str1" d="M0.582238 0.194839c0.069019,0 0.124969,0.0593862 0.124969,0.132611 0,0.0732253 -0.0559505,0.132611 -0.124969,0.132611 -0.0690029,0 -0.124969,-0.0593862 -0.124969,-0.132611 0,-0.0732253 0.0559665,-0.132611 0.124969,-0.132611zm0 0.0605582c0.0375037,0 0.0679112,0.0322538 0.0679112,0.0720533 0,0.0397995 -0.0304075,0.0720533 -0.0679112,0.0720533 -0.0374876,0 -0.0678952,-0.0322538 -0.0678952,-0.0720533 0,-0.0397995 0.0304075,-0.0720533 0.0678952,-0.0720533z"/>
   <polygon id="_119741488" class="fil1 str1" points="1.0458,0.194615 1.10357,0.194615 1.10357,0.460062 1.0458,0.460062 "/>
   <path id="_119563776" class="fil1 str1" d="M0.332829 0.201711l0.0582624 0 0 0.0160065c0.00533015,-0.017917 0.0274214,-0.0232471 0.0571225,-0.0228618l-0.000256875 0.0520974c-0.0308892,0.00720854 -0.0491754,0.00903877 -0.0568656,0.0450654l0 0.168044 -0.0582624 0 0 -0.258352z"/>
   <path id="_119564184" class="fil1 str1" d="M1.06924 0.0141602l0.102381 0c0.115802,0 0.210541,0.00663057 0.210541,0.0147221l0 0.132628c0,0.00809155 -0.0947385,0.0147061 -0.210541,0.0147061l-0.102381 0c-0.115802,0 -0.210541,-0.00661452 -0.210541,-0.0147061l0 -0.132628c0,-0.00809155 0.0947385,-0.0147221 0.210541,-0.0147221z"/>
   <polygon id="_119563008" class="fil1 str1" points="1.14145,0.244063 1.14145,0.194615 1.38101,0.194615 1.38101,0.245267 1.22871,0.409603 1.38131,0.40957 1.38216,0.462487 1.13913,0.462342 1.13821,0.416843 1.30163,0.245171 "/>
  </g>
  <path class="fil2" d="M0.889364 0.0560789l0.0241944 0 0 0.0590009 0.0377284 0 0 0.0192816 -0.0619228 0 0 -0.0782825zm0.0738835 0l0.0242265 0 0 0.0782825 -0.0242265 0 0 -0.0782825zm0.0373592 0.0523864l0.0230063 -0.00144492c0.000497694,0.00374074 0.00150914,0.00658241 0.00305039,0.00854108 0.00247242,0.00317882 0.00605261,0.00475218 0.0106603,0.00475218 0.00345175,0 0.00610077,-0.000802733 0.00797917,-0.00242425 0.00186234,-0.00162152 0.00279351,-0.00349992 0.00279351,-0.00563519 0,-0.00202289 -0.000883006,-0.00385312 -0.00266507,-0.00545858 -0.00178207,-0.00160547 -0.00590811,-0.0031146 -0.0123781,-0.00452741 -0.0106121,-0.00239214 -0.0181739,-0.00553886 -0.0226852,-0.00950436 -0.00454347,-0.00394945 -0.00682323,-0.00899061 -0.00682323,-0.0151074 0,-0.00402972 0.00117199,-0.00783467 0.00349992,-0.0114149 0.00231187,-0.00356413 0.00581179,-0.0063737 0.0104997,-0.0084287 0.00468796,-0.002055 0.0110938,-0.00306644 0.0192495,-0.00306644 0.009986,0 0.017628,0.00186234 0.0228779,0.00557097 0.00524987,0.00372468 0.00834842,0.00964885 0.00934381,0.0177565l-0.0227816 0.00133254c-0.000594022,-0.00351597 -0.0018784,-0.00608472 -0.00382101,-0.00769018 -0.00194261,-0.00158941 -0.00460769,-0.00239214 -0.00801127,-0.00239214 -0.00282562,0 -0.00492878,0.000577968 -0.00635764,0.00178207 -0.00142886,0.00118804 -0.00213527,0.00264902 -0.00213527,0.00436687 0,0.00123621 0.000577968,0.00234398 0.00174996,0.00335542 0.00115594,0.0010275 0.00385312,0.00197472 0.00812366,0.00287378 0.010564,0.00227976 0.0181257,0.00459163 0.0227013,0.00691956 0.00457558,0.00234398 0.00789889,0.00521776 0.00996994,0.00868557 0.00208711,0.0034357 0.00314671,0.00730487 0.00314671,0.0115915 0,0.00500905 -0.00141281,0.00964885 -0.00417421,0.0138712 -0.0027614,0.00423843 -0.00664663,0.00744936 -0.0116396,0.00964885 -0.00497694,0.00218343 -0.0112704,0.00327515 -0.0188321,0.00327515 -0.0133093,0 -0.0225247,-0.00255269 -0.0276461,-0.00769018 -0.00512144,-0.00512144 -0.00802733,-0.0116396 -0.00870162,-0.0195385zm0.0776564 -0.0523864l0.0734822 0 0 0.0193298 -0.024676 0 0 0.0589527 -0.0241623 0 0 -0.0589527 -0.0246439 0 0 -0.0193298zm0.0714111 0.0413407l0.0315795 0 0 0.0167932 -0.0315795 0 0 -0.0167932zm0.0421435 -0.0413407l0.0225729 0 0.0294603 0.0432994 0 -0.0432994 0.0227976 0 0 0.0782825 -0.0227976 0 -0.0292998 -0.0429783 0 0.0429783 -0.0227334 0 0 -0.0782825zm0.130219 0.0499139l0 -0.0162634 0.0373431 0 0 0.0333616c-0.00714432,0.00486456 -0.0134538,0.00820393 -0.0189606,0.00995389 -0.00550675,0.00176601 -0.0120249,0.00264902 -0.0195706,0.00264902 -0.00927959,0 -0.0168413,-0.00158941 -0.0227013,-0.00475218 -0.00585995,-0.00316277 -0.0103874,-0.00788284 -0.0135983,-0.0141442 -0.00322699,-0.00627737 -0.00484851,-0.0134538 -0.00484851,-0.0215775 0,-0.00854108 0.00176601,-0.0159744 0.00528198,-0.0222999 0.00354808,-0.00630948 0.00868557,-0.0111098 0.0154767,-0.014385 0.00531409,-0.00253664 0.0124584,-0.0037889 0.0214169,-0.0037889 0.00863741,0 0.0151074,0.000786678 0.0194101,0.00234398 0.00427054,0.00157336 0.00781862,0.00399761 0.0106603,0.00728882 0.00282562,0.00329121 0.00496089,0.00746542 0.0063737,0.0125226l-0.0233114 0.00415816c-0.00096328,-0.00295406 -0.00260085,-0.00520171 -0.00489667,-0.00677507 -0.00227976,-0.00157336 -0.00521776,-0.00236003 -0.00876584,-0.00236003 -0.00529804,0 -0.00952041,0.00184629 -0.0126832,0.0055228 -0.00314671,0.00370863 -0.00473612,0.00952041 -0.00473612,0.0174996 0,0.00847686 0.00160547,0.0145295 0.00480034,0.0181578 0.00316277,0.00362835 0.00760991,0.00545858 0.0133093,0.00545858 0.00269718,0 0.00528198,-0.000401366 0.00772229,-0.00118804 0.00245636,-0.000786678 0.00528198,-0.00211921 0.00844475,-0.00399761l0 -0.00738514 -0.016167 0z"/>
  <g id="_119095048">
   <path id="_119562336" class="fil0" d="M0.0513749 0.460062l0 -0.18161 -0.0285291 -0.0570904 0.0285291 0 0 -0.199784 0.142614 0c0.153338,0.0273732 0.144315,0.246182 -0.0129561,0.26206l-0.0609435 0 0 0.175124 -0.0687139 0.00130043zm0.0674135 -0.241285l0 -0.136224 0.0544574 0c0.0855071,0.00987362 0.0859245,0.121197 0.00130043,0.134923l-0.0557578 0.00130043z"/>
   <path id="_119562624" class="fil0" d="M0.748629 0.0141602l0 0.186989 -0.0287539 0.0575399 0.0287539 0 0 0.201374 0.143753 0c0.154558,-0.0275819 0.145455,-0.248125 -0.0130685,-0.264131l-0.0614251 0 0 -0.181771 -0.0692598 0zm0.0679594 0.247145l0 0.137299 0.0548909 0c0.0861814,-0.00995389 0.0865988,-0.12216 0.00130043,-0.135983l-0.0561913 -0.00131648z"/>
   <path id="_119562312" class="fil0" d="M0.582238 0.194839c0.069019,0 0.124969,0.0593862 0.124969,0.132611 0,0.0732253 -0.0559505,0.132611 -0.124969,0.132611 -0.0690029,0 -0.124969,-0.0593862 -0.124969,-0.132611 0,-0.0732253 0.0559665,-0.132611 0.124969,-0.132611zm0 0.0605582c0.0375037,0 0.0679112,0.0322538 0.0679112,0.0720533 0,0.0397995 -0.0304075,0.0720533 -0.0679112,0.0720533 -0.0374876,0 -0.0678952,-0.0322538 -0.0678952,-0.0720533 0,-0.0397995 0.0304075,-0.0720533 0.0678952,-0.0720533z"/>
   <polygon id="_119562480" class="fil0" points="1.0458,0.194615 1.10357,0.194615 1.10357,0.460062 1.0458,0.460062 "/>
   <path id="_119095480" class="fil0" d="M0.332829 0.201711l0.0582624 0 0 0.0160065c0.00533015,-0.017917 0.0274214,-0.0232471 0.0571225,-0.0228618l-0.000256875 0.0520974c-0.0308892,0.00720854 -0.0491754,0.00903877 -0.0568656,0.0450654l0 0.168044 -0.0582624 0 0 -0.258352z"/>
   <path id="_119094520" class="fil0" d="M1.06924 0.0141602l0.102381 0c0.115802,0 0.210541,0.00663057 0.210541,0.0147221l0 0.132628c0,0.00809155 -0.0947385,0.0147061 -0.210541,0.0147061l-0.102381 0c-0.115802,0 -0.210541,-0.00661452 -0.210541,-0.0147061l0 -0.132628c0,-0.00809155 0.0947385,-0.0147221 0.210541,-0.0147221z"/>
   <polygon id="_119094688" class="fil0" points="1.14145,0.244063 1.14145,0.194615 1.38101,0.194615 1.38101,0.245267 1.22871,0.409603 1.38131,0.40957 1.38216,0.462487 1.13913,0.462342 1.13821,0.416843 1.30163,0.245171 "/>
  </g>
  <path class="fil2" d="M0.889364 0.0560789l0.0241944 0 0 0.0590009 0.0377284 0 0 0.0192816 -0.0619228 0 0 -0.0782825zm0.0738835 0l0.0242265 0 0 0.0782825 -0.0242265 0 0 -0.0782825zm0.0373592 0.0523864l0.0230063 -0.00144492c0.000497694,0.00374074 0.00150914,0.00658241 0.00305039,0.00854108 0.00247242,0.00317882 0.00605261,0.00475218 0.0106603,0.00475218 0.00345175,0 0.00610077,-0.000802733 0.00797917,-0.00242425 0.00186234,-0.00162152 0.00279351,-0.00349992 0.00279351,-0.00563519 0,-0.00202289 -0.000883006,-0.00385312 -0.00266507,-0.00545858 -0.00178207,-0.00160547 -0.00590811,-0.0031146 -0.0123781,-0.00452741 -0.0106121,-0.00239214 -0.0181739,-0.00553886 -0.0226852,-0.00950436 -0.00454347,-0.00394945 -0.00682323,-0.00899061 -0.00682323,-0.0151074 0,-0.00402972 0.00117199,-0.00783467 0.00349992,-0.0114149 0.00231187,-0.00356413 0.00581179,-0.0063737 0.0104997,-0.0084287 0.00468796,-0.002055 0.0110938,-0.00306644 0.0192495,-0.00306644 0.009986,0 0.017628,0.00186234 0.0228779,0.00557097 0.00524987,0.00372468 0.00834842,0.00964885 0.00934381,0.0177565l-0.0227816 0.00133254c-0.000594022,-0.00351597 -0.0018784,-0.00608472 -0.00382101,-0.00769018 -0.00194261,-0.00158941 -0.00460769,-0.00239214 -0.00801127,-0.00239214 -0.00282562,0 -0.00492878,0.000577968 -0.00635764,0.00178207 -0.00142886,0.00118804 -0.00213527,0.00264902 -0.00213527,0.00436687 0,0.00123621 0.000577968,0.00234398 0.00174996,0.00335542 0.00115594,0.0010275 0.00385312,0.00197472 0.00812366,0.00287378 0.010564,0.00227976 0.0181257,0.00459163 0.0227013,0.00691956 0.00457558,0.00234398 0.00789889,0.00521776 0.00996994,0.00868557 0.00208711,0.0034357 0.00314671,0.00730487 0.00314671,0.0115915 0,0.00500905 -0.00141281,0.00964885 -0.00417421,0.0138712 -0.0027614,0.00423843 -0.00664663,0.00744936 -0.0116396,0.00964885 -0.00497694,0.00218343 -0.0112704,0.00327515 -0.0188321,0.00327515 -0.0133093,0 -0.0225247,-0.00255269 -0.0276461,-0.00769018 -0.00512144,-0.00512144 -0.00802733,-0.0116396 -0.00870162,-0.0195385zm0.0776564 -0.0523864l0.0734822 0 0 0.0193298 -0.024676 0 0 0.0589527 -0.0241623 0 0 -0.0589527 -0.0246439 0 0 -0.0193298zm0.0714111 0.0413407l0.0315795 0 0 0.0167932 -0.0315795 0 0 -0.0167932zm0.0421435 -0.0413407l0.0225729 0 0.0294603 0.0432994 0 -0.0432994 0.0227976 0 0 0.0782825 -0.0227976 0 -0.0292998 -0.0429783 0 0.0429783 -0.0227334 0 0 -0.0782825zm0.130219 0.0499139l0 -0.0162634 0.0373431 0 0 0.0333616c-0.00714432,0.00486456 -0.0134538,0.00820393 -0.0189606,0.00995389 -0.00550675,0.00176601 -0.0120249,0.00264902 -0.0195706,0.00264902 -0.00927959,0 -0.0168413,-0.00158941 -0.0227013,-0.00475218 -0.00585995,-0.00316277 -0.0103874,-0.00788284 -0.0135983,-0.0141442 -0.00322699,-0.00627737 -0.00484851,-0.0134538 -0.00484851,-0.0215775 0,-0.00854108 0.00176601,-0.0159744 0.00528198,-0.0222999 0.00354808,-0.00630948 0.00868557,-0.0111098 0.0154767,-0.014385 0.00531409,-0.00253664 0.0124584,-0.0037889 0.0214169,-0.0037889 0.00863741,0 0.0151074,0.000786678 0.0194101,0.00234398 0.00427054,0.00157336 0.00781862,0.00399761 0.0106603,0.00728882 0.00282562,0.00329121 0.00496089,0.00746542 0.0063737,0.0125226l-0.0233114 0.00415816c-0.00096328,-0.00295406 -0.00260085,-0.00520171 -0.00489667,-0.00677507 -0.00227976,-0.00157336 -0.00521776,-0.00236003 -0.00876584,-0.00236003 -0.00529804,0 -0.00952041,0.00184629 -0.0126832,0.0055228 -0.00314671,0.00370863 -0.00473612,0.00952041 -0.00473612,0.0174996 0,0.00847686 0.00160547,0.0145295 0.00480034,0.0181578 0.00316277,0.00362835 0.00760991,0.00545858 0.0133093,0.00545858 0.00269718,0 0.00528198,-0.000401366 0.00772229,-0.00118804 0.00245636,-0.000786678 0.00528198,-0.00211921 0.00844475,-0.00399761l0 -0.00738514 -0.016167 0z"/>
 </g>
</svg>
